<svg width="120" height="52" viewBox="0 0 120 52" fill="none" xmlns="http://www.w3.org/2000/svg">
<g clip-path="url(#clip0_1228_390)">
<path d="M41.2844 44.9911C41.2844 43.9446 41.1181 43.1553 40.7874 42.6225C40.4569 42.089 39.9646 41.8228 39.3134 41.8228C38.656 41.8228 38.1587 42.0906 37.8211 42.6259C37.4828 43.1611 37.3136 43.9498 37.3136 44.9911C37.3136 46.027 37.4828 46.8145 37.8211 47.352C38.1587 47.8901 38.656 48.1593 39.3134 48.1593C39.9646 48.1593 40.4569 47.8925 40.7874 47.3597C41.1181 46.8267 41.2844 46.0371 41.2844 44.9911ZM37.3136 48.0562V52.2148H35.9531V40.8765H37.3136V41.9255C37.539 41.5197 37.8391 41.2104 38.2137 40.9974C38.5894 40.785 39.0219 40.6787 39.5117 40.6787C40.5065 40.6787 41.2878 41.0628 41.8537 41.8303C42.4201 42.5975 42.7029 43.6607 42.7029 45.0203C42.7029 46.3553 42.4185 47.4029 41.8501 48.1628C41.2813 48.9228 40.5025 49.3027 39.5117 49.3027C39.0119 49.3027 38.5741 49.1972 38.1996 48.9835C37.8246 48.7711 37.529 48.4624 37.3136 48.0562Z" fill="#E26E59"/>
<path d="M50.4131 46.12C50.4131 46.7266 50.5243 47.1837 50.7471 47.4912C50.9702 47.7989 51.2996 47.9535 51.7361 47.9535H53.3169V49.0898H51.6039C50.7946 49.0898 50.1685 48.8319 49.7249 48.3166C49.2813 47.8006 49.0594 47.0686 49.0594 46.12V38.6908H46.8906V37.6343H50.4131V46.12Z" fill="#E26E59"/>
<path d="M60.8635 44.9619H60.4152C59.6251 44.9619 59.0317 45.0997 58.6319 45.3764C58.2323 45.6518 58.0327 46.0644 58.0327 46.6114C58.0327 47.1057 58.182 47.4893 58.4816 47.763C58.7801 48.0368 59.1944 48.1734 59.7239 48.1734C60.4683 48.1734 61.0542 47.9159 61.4814 47.3999C61.9074 46.8839 62.1233 46.1718 62.1287 45.2624V44.9619H60.8635ZM63.4879 44.4044V49.0903H62.1287V47.8727C61.8389 48.3618 61.4749 48.7225 61.0367 48.9544C60.5978 49.1872 60.0646 49.3027 59.4372 49.3027C58.5991 49.3027 57.9297 49.0672 57.4295 48.5953C56.9302 48.1237 56.6797 47.4917 56.6797 46.6995C56.6797 45.7854 56.9875 45.0908 57.6027 44.6171C58.2176 44.1429 59.1207 43.9054 60.3115 43.9054H62.1287V43.693C62.1233 43.0376 61.9566 42.5625 61.6282 42.2665C61.2993 41.9704 60.775 41.8229 60.0547 41.8229C59.594 41.8229 59.1289 41.8887 58.6577 42.0206C58.1872 42.1532 57.7291 42.3458 57.2825 42.6003V41.2501C57.7829 41.0598 58.2621 40.9169 58.7204 40.8217C59.1785 40.7267 59.6233 40.6788 60.0547 40.6788C60.7359 40.6788 61.318 40.7792 61.8014 40.9793C62.2836 41.1803 62.6741 41.4808 62.9737 41.8817C63.1595 42.1264 63.2919 42.4275 63.3704 42.7871C63.4489 43.1459 63.4879 43.686 63.4879 44.4044Z" fill="#E26E59"/>
<path d="M72.5755 46.4503C72.3496 47.0223 72.0638 47.7753 71.7156 48.7092C71.2302 49.9996 70.9036 50.7871 70.737 51.0701C70.5117 51.4518 70.2301 51.7374 69.8921 51.9284C69.5529 52.1191 69.1592 52.2148 68.708 52.2148H67.6197V51.0848H68.4209C68.8188 51.0848 69.1298 50.9699 69.3551 50.7404C69.5805 50.5105 69.8675 49.9163 70.2157 48.9583L67.0312 40.8765H68.4659L70.9066 47.3013L73.3108 40.8765H74.7442L72.5755 46.4503Z" fill="#E26E59"/>
<path d="M83.9943 41.1633V42.4829C83.6071 42.2583 83.2176 42.089 82.8257 41.9769C82.4326 41.8649 82.0335 41.8077 81.6266 41.8077C81.0136 41.8077 80.5564 41.9076 80.2555 42.1053C79.9541 42.3033 79.8037 42.6054 79.8037 43.0113C79.8037 43.3771 79.9164 43.6514 80.1411 43.8326C80.3664 44.0133 80.9285 44.1891 81.8256 44.3603L82.3691 44.4628C83.0409 44.59 83.5496 44.8445 83.8954 45.2257C84.2412 45.6075 84.4131 46.1036 84.4131 46.7142C84.4131 47.526 84.1243 48.1606 83.546 48.6175C82.9672 49.0746 82.163 49.3027 81.134 49.3027C80.7272 49.3027 80.3011 49.2602 79.8552 49.175C79.4082 49.0893 78.9258 48.9607 78.4062 48.7898V47.3964C78.9108 47.6556 79.3938 47.85 79.8552 47.9796C80.3155 48.1087 80.7517 48.1734 81.1634 48.1734C81.7615 48.1734 82.2247 48.0525 82.5537 47.8108C82.8815 47.5687 83.0457 47.2302 83.0457 46.7952C83.0457 46.1695 82.4458 45.7364 81.2449 45.497L81.1856 45.4819L80.678 45.3798C79.899 45.2281 79.3303 44.9724 78.9725 44.6133C78.6148 44.2538 78.4356 43.7642 78.4356 43.1427C78.4356 42.3559 78.7029 41.7481 79.2368 41.3202C79.7713 40.8929 80.533 40.6788 81.5242 40.6788C81.9652 40.6788 82.3883 40.7185 82.7958 40.7995C83.2027 40.88 83.6024 41.0015 83.9943 41.1633Z" fill="#E26E59"/>
<path d="M17.3559 27.1108H5.59856V5.11254H17.3559C21.8564 6.7127 24.9165 11.0672 24.9824 15.9476C25.0508 20.9454 21.9659 25.4707 17.3559 27.1108ZM30.5313 15.2935C30.0805 7.91091 24.6912 1.55206 17.3728 -0.00147985H0V32.7227H17.3728C25.4518 30.9713 31.0263 23.4033 30.5313 15.2935Z" fill="#E26E59"/>
<path d="M46.7396 -0.00147985H41.0663C38.1509 0.779019 36.0809 3.31621 35.9588 6.2144C35.8285 9.30846 37.9463 12.1509 41.0663 12.9928C37.6685 14.1781 35.6128 17.447 36.0608 20.6535C36.4234 23.2523 38.3832 25.4695 41.0663 26.3447C40.1953 26.8624 38.8004 27.8451 37.618 29.5185C36.7636 30.7281 36.3103 31.8876 36.0608 32.7227H42.2899C42.457 32.638 46.2869 30.6213 46.5173 26.4543C46.6875 23.3805 44.8273 20.4527 41.8455 19.1498C44.604 18.1495 46.4356 15.5418 46.4059 12.6642C46.377 9.83595 44.5566 7.29924 41.8455 6.3163C42.485 6.11715 43.814 5.60619 44.96 4.34649C46.5434 2.6061 46.7124 0.608281 46.7396 -0.00147985Z" fill="#ECA643"/>
<path d="M52.1328 5.54312V-0.00148071H81.7957V5.54312H70.0753V32.7227H63.956V5.54312H52.1328Z" fill="#A3BFE0"/>
<path d="M119.996 14.3433C118.288 14.4289 116.578 14.5138 114.869 14.5986C115.441 21.2577 110.226 26.948 104.006 27.0392C97.6712 27.1323 92.2374 21.3857 92.8153 14.5986C90.9396 14.5201 89.065 14.4418 87.1892 14.3634C87.0717 23.5647 93.0905 31.1242 100.237 32.4925C109.121 34.1935 119.589 26.2974 119.996 14.3433Z" fill="#ECA643"/>
<path d="M119.994 5.37695H107.859V-0.00235701H119.994V5.37695Z" fill="#ECA643"/>
<path d="M94.3785 3.59578C94.3785 5.58139 92.7686 7.19141 90.783 7.19141C88.7975 7.19141 87.1875 5.58139 87.1875 3.59578C87.1875 1.61035 88.7975 0.000158038 90.783 0.000158038C92.7686 0.000158038 94.3785 1.61035 94.3785 3.59578Z" fill="#E26E59"/>
</g>
<defs>
<clipPath id="clip0_1228_390">
<rect width="120" height="52" fill="white"/>
</clipPath>
</defs>
</svg>
